# xmcd CD database file
#
# Track frame offsets:
#	150
#	15865
#	28510
#	44307
#	60572
#	73640
#	85020
#	107085
#	121725
#	136245
#	148370
#	171777
#	184015
#	204752
#
# Disc length: 2923 seconds
#
# Revision: 3
# Processed by: cddbd v1.5.2PL0 Copyright (c) Steve Scherf et al.
# Submitted via: CDex 1.51
#
DISCID=b20b690e
DTITLE=Aretha Franklin - Aretha Sings the Blues
DYEAR=1985
DGENRE=Blues
TTITLE0=Drinking Again
TTITLE1=Today I Sing the Blues
TTITLE2=What a Difference a Day Made
TTITLE3=Without the One I Love
TTITLE4=Trouble in Mind
TTITLE5=Muddy Water
TTITLE6=Only the Lonely
TTITLE7=I Wonder (Where You Are Tonight)
TTITLE8=Laughing on the Outside (Crying on the Inside)
TTITLE9=Take a Look
TTITLE10=Nobody Knows the Way I Feel This Morning
TTITLE11=Evil Gal Blues
TTITLE12=This Bitter Earth
TTITLE13=Maybe I'm a Fool
EXTD=YEAR: 1985
EXTT0=
EXTT1=
EXTT2=
EXTT3=
EXTT4=
EXTT5=
EXTT6=
EXTT7=
EXTT8=
EXTT9=
EXTT10=
EXTT11=
EXTT12=
EXTT13=
PLAYORDER=
